<svg id="Capa_1" enable-background="new 0 0 512 512" height="512" viewBox="0 0 512 512" width="512" xmlns="http://www.w3.org/2000/svg"><g><path d="m208.125 416.25h-193.125c-8.284 0-15-6.716-15-15v-386.25c0-8.284 6.716-15 15-15h386.25c8.284 0 15 6.716 15 15v193.125z" fill="#aedcfe"/><path d="m208.125 416.25h-193.125c-8.284 0-15-6.716-15-15v-120.321c0-4.328 1.87-8.445 5.128-11.293l98.546-86.143c3.795-3.316 9-4.506 13.857-3.167l59.798 16.479 103.599-102.57c5.207-5.155 13.377-5.796 19.322-1.511l109.768 79.089c3.913 2.819 6.231 7.348 6.231 12.17v24.143z" fill="#aedd4e"/><path d="m401.25 0h-193.125v416.25l208.125-208.125v-193.125c0-8.284-6.716-15-15-15z" fill="#9ecafd"/><path d="m410.019 171.812-109.768-79.089c-5.945-4.285-14.115-3.644-19.322 1.511l-72.804 72.081v249.935l208.125-208.125v-24.143c0-4.822-2.318-9.351-6.231-12.17z" fill="#93ca59"/><path d="m155.99 149.603c-27.967 2.493-51.3-20.839-48.807-48.806 1.911-21.439 19.175-38.703 40.614-40.614 27.967-2.493 51.299 20.84 48.806 48.807-1.911 21.438-19.175 38.702-40.613 40.613z" fill="#f4d752"/><path d="m495.895 512h-271.665c-8.895 0-16.105-7.211-16.105-16.105v-271.665c0-8.895 7.211-16.105 16.105-16.105h271.664c8.895 0 16.105 7.211 16.105 16.105v271.664c.001 8.895-7.21 16.106-16.104 16.106z" fill="#f4d752"/><path d="m495.895 208.125h-135.832v303.875h135.832c8.895 0 16.105-7.211 16.105-16.105v-271.665c0-8.894-7.211-16.105-16.105-16.105z" fill="#efbf42"/><path d="m426.571 417.232h-133.017c-8.284 0-15-6.716-15-15s6.716-15 15-15h133.018c8.284 0 15 6.716 15 15-.001 8.284-6.717 15-15.001 15z" fill="#5f6c75"/><path d="m426.571 387.232h-66.509v30h66.509c8.284 0 15-6.716 15-15s-6.716-15-15-15z" fill="#505c62"/><path d="m387.17 441.572c-8.284 0-15-6.716-15-15v-48.679c0-8.284 6.716-15 15-15s15 6.716 15 15v48.679c0 8.284-6.716 15-15 15z" fill="#414c4f"/><path d="m426.571 332.893h-133.017c-8.284 0-15-6.716-15-15s6.716-15 15-15h133.018c8.284 0 15 6.716 15 15-.001 8.284-6.717 15-15.001 15z" fill="#5f6c75"/><g fill="#505c62"><path d="m426.571 302.893h-66.509v30h66.509c8.284 0 15-6.716 15-15s-6.716-15-15-15z"/><path d="m332.955 357.232c-8.284 0-15-6.716-15-15v-48.679c0-8.284 6.716-15 15-15s15 6.716 15 15v48.679c0 8.284-6.716 15-15 15z"/></g></g></svg>